# xmcd
#
# Track frame offsets: 
#        150
#        3242
#        20350
#        45052
#        63997
#        80040
#        100537
#        119135
#        130605
#        147707
#        162647
#        179360
#
# Disc length: 2685 seconds
#
# Revision: 7
# Processed by: cddbd v1.5.2PL0 Copyright (c) Steve Scherf et al.
# Submitted via: ExactAudioCopy v0.99pb5
#
DISCID=9b0a7b0c
DTITLE=Joe Sarnataro e I Blue Stuff - E' asciuto pazzo 'o padrone
DYEAR=1992
DGENRE=Blues
TTITLE0=Intro
TTITLE1=E' asciuto pazzo 'o padrone
TTITLE2=Sotto viale Augusto che ce sta'?
TTITLE3='O billocco l'acqua!
TTITLE4=Accussì va 'o Munno
TTITLE5=Va vedenno mo' chi è stato
TTITLE6=Vutammo pe te'
TTITLE7=Lieve 'e mano alloca!
TTITLE8=Che Babbilonia!
TTITLE9=Come aggia fà
TTITLE10='A gente è bona
TTITLE11=Nisciuno!
EXTD=
EXTT0=
EXTT1=
EXTT2=
EXTT3=
EXTT4=
EXTT5=
EXTT6=
EXTT7=
EXTT8=
EXTT9=
EXTT10=
EXTT11=
PLAYORDER=
